<svg xmlns="http://www.w3.org/2000/svg" xmlns:xlink="http://www.w3.org/1999/xlink"><defs>
<clipPath id="clip0">
<rect width="11" height="14" fill="white"/>
</clipPath>
</defs><symbol id="adventures"><path fill-rule="evenodd" clip-rule="evenodd" d="M35.941 6.484c-.138-.48-.49-.754-.858-1.012-.428-.24-.713-.611-1.183-.811-.223-.278-.784-.441-.966-.607-.09-.082-.09-.03-.215-.1-.425-.244-.802-.56-1.288-.71-.675-.612-1.512-1.071-2.254-1.62a4.968 4.968 0 01-1.18-.708c-.45-.22-.575-.742-1.182-.812-.008-.061-.017-.119-.107-.1-.145.031-.206.143-.43.1-.807.455-1.378 1.131-2.147 1.62-.939.567-1.876 1.134-2.79 1.723-.484.254-.841.625-1.396.81-.13.25-.37.396-.645.506-.23.103-.4.523-.644.304-1.349-.55-2.424-1.36-3.65-2.025-.48-.46-1.294-.602-1.826-1.013-.77-.218-1.288-.675-2.254-.71-.686-.04-.984.29-1.61.305-2.708 1.7-5.998 2.85-8.802 4.457-.146.369-.14.881-.43 1.114-.145 1.588-.073 3.247 0 4.861.202 4.556-.36 9.77.321 14.482.062.786-.129 1.811.109 2.431.028.209.286.203.428.304.266-.132.521.227.536 0 .246.275.194.832.86.71.682.102.822-.306 1.181-.508.332-.227.618-.496.859-.809.685-.434 1.195-1.033 1.824-1.52.604-.51 1.194-1.034 1.827-1.519.322-.234.667-.45.965-.708.436-.129.623-.495 1.074-.609 1.485.692 2.73 1.61 4.187 2.33.69.394 1.387.784 1.931 1.317.42.112.778.28 1.073.505.316-.026.331.23.646.204-.05.316.229.322.535.303.824-.305 1.444-.8 2.041-1.317.679-.439 1.362-.874 1.932-1.417.839-.29 1.222-1.008 2.04-1.316.24-.315.722-.4.966-.71.378-.184.623-.492 1.074-.607 1.45.893 2.458 2.204 3.758 3.24.372.189.495.61.965.71.291.298.497.68.967.81.351.241.36.807.966.81.404.192.492.684 1.181.607.417-.19.545-.514.644-1.013.104-.521-.079-1.094 0-1.62.173-.377.349-.752.43-1.215.572-4.492.182-9.887.43-14.686.193-.681.1-1.6.107-2.43.004-.854.13-1.7 0-2.33zM2.337 28.361c-.055-.053.08-.13.109-.1.054.051-.078.128-.109.1zm31.35-16.71c-.267 4.535.034 9.704-.217 14.38-1.43-.573-2.468-1.518-3.757-2.228-1.4-.57-2.23-1.677-3.757-2.126-.906.157-1.337.764-2.04 1.113-.525.483-1.242.786-1.716 1.317-1.301.765-2.38 1.74-3.544 2.633-.414-.08-.477-.495-.75-.708-.196-.29-.612-.37-.753-.709-.854-.344-1.415-.96-2.362-1.215-.815-.38-1.588-.798-2.47-1.115-.247-.305-.672-.446-.858-.81-.335-.19-.592-.455-1.074-.506-.707-.061-1.138.14-1.502.405-.185.399-.78.411-.966.81-.386.208-.58.601-.967.81-.292.3-.496.68-.966.81-.533.646-1.255 1.112-1.718 1.823-.348.246-.562.618-.86.911-.071.236-.354.273-.427.507-.126.03-.31.574-.323.103.31-.399-.13-.955-.107-1.419-.114-6.238-.312-12.4-.644-18.433-.023-.325.382-.246.537-.404.16-.119.439-.126.537-.305.46-.14.706-.48 1.18-.607.774-.42 1.44-.937 2.254-1.317.703-.485 1.66-.73 2.363-1.215.541-.062.667-.518 1.288-.506.352-.209.675-.445 1.074-.608 1.088.762 2.325 1.385 3.435 2.126.547.395 1.213.68 1.718 1.114.633.28.996.816 1.718 1.013 1.023-.115 1.712-.546 2.36-1.013.676-.444 1.404-.837 2.041-1.316 1.428-.779 2.576-1.825 3.972-2.633a.761.761 0 01.323-.204c.645.506 1.2 1.096 2.039 1.419.72.435 1.43.88 2.255 1.215.388.51.962.847 1.503 1.216.455.414.928.811 1.503 1.114-.102 1.471-.232 2.996-.323 4.557zM27.78 9.117c-.6-.582-.743-1.592-1.502-2.025-.65-.005-.742.516-.86 1.012.067.68.458 1.053.644 1.622a5.409 5.409 0 01-2.147.404c-.277.348-.894.372-.86 1.012.163.188.238.327.54.406.284.075.738-.057 1.071 0 .67-.18 1.305-.39 2.04-.506.51.396.725 1.07 1.074 1.62.4.5.487 1.296 1.61 1.114.126-.186.281-.343.43-.506-.182-1.112-.909-1.71-1.289-2.634.591-.05.958-.312 1.504-.405.503-.131.965-.305.966-.91-.358-1.39-2.192-.269-3.22-.204zm-1.932 2.33c-.437.478-1.613.755-1.181 1.72.512.253.792-.24 1.181-.405.31-.281.782-.41.644-1.113-.225-.058-.306-.25-.644-.202zm-13.956.1c-.669.402-2.211.88-1.504 1.926.687.04.994-.28 1.29-.608.505-.13.715-.54.858-1.013-.174-.14-.264-.359-.644-.304zm2.898 2.431c-.023-.246-.293-.456-.43-.607-.17-.187-.312-.495-.643-.506-.368-.044-.323.303-.538.405.065.547.461.781.646 1.215.347.315.448.858 1.072.912.024-.08.09-.118.216-.101.379-.387.033-1.048-.323-1.318zm7.41.608c-.068.377-.442.464-.324 1.013.12.02.167.112.215.203.514.208.936-.255 1.289-.507.385-.312.819-.576.857-1.215-.642-.757-1.551.182-2.038.506zm-13.636-.405c-.58.467-1.462.646-1.504 1.62.418.467 1.041-.004 1.397-.202.264-.391.74-.585.751-1.216-.191-.09-.273-.283-.644-.202zm12.453 2.025c-.201-.08-.392-.169-.645-.202-.017.118-.169.11-.321.101-.385.337-.913.67-1.289.912-.037.024-.077.167-.107.203-.028.032-.185-.034-.216 0-.04.048-.089.263-.106.303-.054.13-.137.2-.106.405.342.71 1.337.278 1.717-.1.386-.48 1.218-.54 1.18-1.419-.083-.023-.124-.084-.107-.203zM5.022 17.524c.213.102.17.448.537.405.585-.19 1.052-.491 1.073-1.215-.643-.514-1.615.073-1.61.81zm10.844-1.013h-.215c-.124.12-.122.359-.108.608.335.507.951 1.438 1.717.91.134-.598-.235-.722-.43-1.01-.369-.124-.358-.608-.964-.508z" fill="#fff"/></symbol><symbol id="all-quests"><path d="M23.046 0H13.59c-2.28 0-4.135 1.962-4.135 4.375v13.75c0 .345.264.625.59.625.327 0 .591-.28.591-.625V4.375c0-1.722 1.326-3.125 2.955-3.125h7.092a3.23 3.23 0 00-.592 1.875V21.25h-4.136c-.327 0-.591.28-.591.625s.264.625.59.625h4.728c.326 0 .59-.28.59-.625V3.125c0-1.034.796-1.875 1.774-1.875.326 0 .59-.28.59-.625S23.372 0 23.046 0z" fill="#fff"/><path d="M18.318 17.5H7.682c-2.281 0-4.137 1.962-4.137 4.375v3.75c0 1.723-1.326 3.125-2.954 3.125-.326 0-.591.28-.591.625S.265 30 .59 30h11.82c2.28 0 4.136-1.962 4.136-4.375v-5c0-1.034.795-1.875 1.772-1.875.326 0 .591-.28.591-.625s-.265-.625-.59-.625zm-2.954 3.125v5c0 1.722-1.326 3.125-2.955 3.125H3.483a4.484 4.484 0 001.244-3.125v-3.75c0-1.723 1.326-3.125 2.955-3.125h8.274a3.23 3.23 0 00-.592 1.875z" fill="#fff"/><path d="M18.318 17.5h-1.181c-.327 0-.591.28-.591.625s.264.625.59.625h1.182c.978 0 1.773.841 1.773 1.875v1.25c0 .345.265.625.59.625.327 0 .592-.28.592-.625v-1.25c0-1.723-1.326-3.125-2.955-3.125zM23.045 0c-.326 0-.59.28-.59.625s.264.625.59.625c.978 0 1.773.841 1.773 1.875v.625h-4.136c-.326 0-.591.28-.591.625s.265.625.59.625h4.728c.326 0 .59-.28.59-.625v-1.25C26 1.403 24.675 0 23.046 0zm-4.727 3.75H12.41c-.326 0-.59.28-.59.625s.264.625.59.625h5.91c.325 0 .59-.28.59-.625s-.265-.625-.59-.625zm0 3.75H12.41c-.326 0-.59.28-.59.625s.264.625.59.625h5.91c.325 0 .59-.28.59-.625s-.265-.625-.59-.625zm0 3.75H12.41c-.326 0-.59.28-.59.625s.264.625.59.625h5.91c.325 0 .59-.28.59-.625s-.265-.625-.59-.625zm0 3.75H12.41c-.326 0-.59.28-.59.625s.264.625.59.625h5.91c.325 0 .59-.28.59-.625S18.644 15 18.32 15zm-4.727 6.25h-7.09c-.327 0-.592.28-.592.625s.265.625.591.625h7.091c.326 0 .59-.28.59-.625s-.264-.625-.59-.625zm0 3.75h-7.09c-.327 0-.592.28-.592.625s.265.625.591.625h7.091c.326 0 .59-.28.59-.625s-.264-.625-.59-.625z" fill="#fff"/></symbol><symbol id="detective"><path d="M39.023 9.746l-.65-1.406H24.796l-.697 1.238c-.183.326-.638 1.325-.932 3.584-.305-.398-.62-.82-.944-1.254-1.92-2.573-4.095-5.49-7.098-7.266-1.566-.927-3.614-1.714-5.619-2.157A20.593 20.593 0 005.14 2H3.748C1.68 2 0 3.646 0 5.67c0 2.023 1.681 3.67 3.748 3.67h1.49c2.208 0 3.586.583 5.268 2.23 1.396 1.367 2.543 3.227 3.757 5.196 2.02 3.275 4.31 6.987 8.397 9.322C24.88 27.357 27.17 28 29.464 28c1.606 0 3.205-.317 4.751-.943a8.899 8.899 0 004.499-3.993C39.555 21.54 40 19.747 40 17.88c0-5.584-.748-7.637-.977-8.133zm-26.11.848c-.22-.247-.446-.486-.68-.715-2.161-2.117-4.164-2.931-6.995-2.931h-1.49c-.72 0-1.305-.572-1.305-1.278 0-.706.584-1.278 1.305-1.278H5.14c1.688 0 3.142.274 3.828.426 1.937.429 3.72 1.176 4.894 1.871a12.44 12.44 0 011.746 1.267l-2.694 2.638zm20.37 14.252a10.121 10.121 0 01-3.819.762c-1.788 0-3.658-.492-5.573-1.586-4.71-2.69-6.749-7.613-9.48-11.512l2.919-2.857c3.269 3.619 5.565 8.279 8.013 8.279 0-5.608.896-7.2.896-7.2h10.558s.76 1.645.76 7.147c0 2.741-1.221 5.731-4.275 6.967z" fill="#fff"/></symbol><symbol id="horror"><path d="M29.121 7.09a.879.879 0 00-.879.879v.879h-1.816V4.395A4.4 4.4 0 0022.03 0H7.97a4.4 4.4 0 00-4.395 4.395v4.453H1.758v-.88a.879.879 0 00-1.758 0V15a.879.879 0 001.758 0v-.879h1.816v4.395C3.574 24.848 8.7 30 15 30s11.426-5.152 11.426-11.484V14.12h1.816V15A.879.879 0 0030 15V7.969a.879.879 0 00-.879-.88zM3.574 12.363H1.758v-1.758h1.816v1.758zm21.094 6.153c0 5.363-4.337 9.726-9.668 9.726-5.33 0-9.668-4.363-9.668-9.726v-9.82a2.625 2.625 0 002.637-.522 2.626 2.626 0 003.516 0 2.626 2.626 0 003.515 0 2.626 2.626 0 003.516 0 2.626 2.626 0 003.515 0 2.626 2.626 0 002.637.522v9.82zm0-12.305a.88.88 0 01-1.758 0 .879.879 0 00-1.758 0 .88.88 0 01-1.758 0 .879.879 0 00-1.757 0 .88.88 0 01-1.758 0 .879.879 0 00-1.758 0 .88.88 0 01-1.758 0 .879.879 0 00-1.758 0 .88.88 0 01-1.757 0 .879.879 0 00-1.758 0 .88.88 0 01-1.758 0V4.395a2.64 2.64 0 012.637-2.637H22.03a2.64 2.64 0 012.637 2.637V6.21zm3.574 6.152h-1.816v-1.758h1.816v1.758z" fill="#fff"/><path d="M22.91 11.484a.879.879 0 00-1.758 0 .88.88 0 01-.879.88h-2.787a.873.873 0 01-.622-.258 2.64 2.64 0 00-3.729 0 .873.873 0 01-.62.257H9.726a.88.88 0 01-.88-.879.879.879 0 00-1.757 0c0 .44.108.853.299 1.218a3.52 3.52 0 003.217 4.935 3.52 3.52 0 003.477-4.033c.104-.077.202-.162.296-.255a.88.88 0 011.242 0c.093.093.192.178.296.255a3.52 3.52 0 003.477 4.033 3.52 3.52 0 003.217-4.935c.19-.365.3-.779.3-1.218zM10.605 15.88a1.76 1.76 0 01-1.75-1.907c.273.096.566.143.872.143h2.636c0 .97-.788 1.764-1.758 1.764zm8.79 0a1.76 1.76 0 01-1.758-1.758h2.636c.306 0 .6-.053.872-.149a1.76 1.76 0 01-1.751 1.907z" fill="#fff"/><path d="M16.758 17.637a.879.879 0 00-.88.879v.879h-1.757v-.88a.879.879 0 00-1.758 0v1.758c0 .486.394.88.88.88h3.515a.879.879 0 00.879-.88v-1.757a.879.879 0 00-.88-.88zm1.758 5.332h-7.032a.879.879 0 000 1.758h7.032a.879.879 0 000-1.758z" fill="#fff"/></symbol><symbol id="location" viewBox="0 0 11 14">
<g clip-path="url(#clip0)">
<path fill-rule="evenodd" clip-rule="evenodd" d="M0.00860076 5.08997C0.206145 2.23805 2.6181 0 5.50001 0C8.38193 0 10.7939 2.23805 10.9914 5.09306C11.0659 6.40631 10.6535 7.70213 9.82847 8.74704L5.94768 13.783C5.89577 13.8504 5.82834 13.9051 5.75077 13.9427C5.67319 13.9804 5.5876 14 5.50081 14C5.41402 14 5.32844 13.9804 5.25086 13.9427C5.17328 13.9051 5.10585 13.8504 5.05395 13.783L1.17156 8.74396C0.346453 7.69911 -0.065986 6.40324 0.00860076 5.08997ZM5.50001 12.5491L8.93474 8.10077C9.60014 7.26234 9.93458 6.22148 9.87785 5.16555C9.73925 3.15733 8.0665 1.08432 5.50161 1.08432C2.93672 1.08432 1.26078 3.16504 1.12218 5.17018C1.06661 6.22454 1.40098 7.26357 2.06529 8.10077L5.50001 12.5491ZM4.16934 3.17643C4.56378 2.92351 5.02689 2.78964 5.49998 2.79177C6.13182 2.79463 6.73678 3.03964 7.18252 3.47322C7.62825 3.9068 7.87849 4.49365 7.87848 5.1054C7.87848 5.56345 7.73804 6.01119 7.47497 6.39189C7.21189 6.7726 6.83802 7.06913 6.40072 7.24392C5.96342 7.41871 5.48237 7.4639 5.01852 7.37374C4.55467 7.28359 4.1289 7.06217 3.79515 6.73752C3.4614 6.41287 3.23469 5.99962 3.14375 5.55011C3.05281 5.1006 3.10172 4.63507 3.2843 4.2125C3.46688 3.78994 3.7749 3.42935 4.16934 3.17643ZM4.78891 6.13664C4.99996 6.27092 5.24745 6.34147 5.49998 6.33933V6.34087C5.83634 6.33802 6.15789 6.20655 6.39454 5.97512C6.63119 5.74369 6.76375 5.43106 6.76331 5.1054C6.7633 4.86089 6.68827 4.6219 6.54772 4.41875C6.40718 4.21561 6.20747 4.05746 5.97394 3.9644C5.74041 3.87133 5.48359 3.84753 5.23606 3.89602C4.98854 3.94452 4.76148 4.06311 4.58369 4.23676C4.4059 4.41042 4.28541 4.63129 4.2375 4.87136C4.18959 5.11142 4.21642 5.35986 4.3146 5.58513C4.41277 5.81041 4.57786 6.00237 4.78891 6.13664Z" fill="#F2890F"/>
</g>

</symbol><symbol id="mystic"><path d="M18.516 7.09a2.64 2.64 0 00-2.637 2.637 2.64 2.64 0 002.637 2.636 2.64 2.64 0 002.636-2.636 2.64 2.64 0 00-2.636-2.637zm0 3.515a.88.88 0 010-1.757.88.88 0 010 1.757zM11.484 7.09a2.64 2.64 0 00-2.636 2.637 2.64 2.64 0 002.636 2.636 2.64 2.64 0 002.637-2.636 2.64 2.64 0 00-2.637-2.637zm0 3.515a.88.88 0 010-1.757.88.88 0 010 1.757z" fill="#fff"/><path d="M27.363 14.121h-2.695V9.727C24.668 4.363 20.331 0 15 0 9.67 0 5.332 4.363 5.332 9.727v4.394H2.637A2.64 2.64 0 000 16.758v1.758a2.64 2.64 0 002.637 2.636 2.73 2.73 0 002.365-1.379l.227.113-1.64 9.079A.879.879 0 004.452 30h21.094a.879.879 0 00.865-1.035l-1.64-9.079.226-.113a2.728 2.728 0 002.365 1.38A2.64 2.64 0 0030 18.515v-1.758a2.64 2.64 0 00-2.637-2.637zm.88 4.395a.88.88 0 01-.88.879c-.5 0-.937-.411-.937-.88a.879.879 0 00-1.272-.785l-3.516 1.757a.879.879 0 10.786 1.573l.709-.355 1.362 7.537h-3.343v-2.695a.879.879 0 00-1.758 0v2.695H15.88V23.79a.879.879 0 00-1.758 0v4.453h-3.516v-2.695a.879.879 0 00-1.757 0v2.695H5.505l1.362-7.537.709.355a.879.879 0 00.786-1.573L4.846 17.73a.879.879 0 00-1.272.786c0 .468-.438.879-.937.879a.88.88 0 01-.88-.88v-1.757a.88.88 0 01.88-.88h5.332a.879.879 0 000-1.757h-.88V9.727c0-4.394 3.55-7.97 7.911-7.97 4.362 0 7.91 3.576 7.91 7.97v4.394h-.879a.879.879 0 000 1.758h5.332a.88.88 0 01.88.879v1.758z" fill="#fff"/><path d="M15 12.363A2.64 2.64 0 0012.363 15v1.758A2.64 2.64 0 0015 19.395a2.64 2.64 0 002.637-2.637V15A2.64 2.64 0 0015 12.363zm.879 4.395a.88.88 0 01-1.758 0V15a.88.88 0 011.758 0v1.758z" fill="#fff"/></symbol><symbol id="person" viewBox="0 0 13 16">
<path d="M8.8924 10.1991H9.88084C10.9936 10.1991 12.081 11.0107 11.896 12.0545L11.6945 13.0439C11.4176 14.1957 10.7921 14.8993 9.67933 15H3.33351C2.22072 14.8993 1.62121 14.0222 1.31832 13.0439L1.11681 12.0545C0.871559 11.0418 2.01921 10.1991 3.13199 10.1991H4.09323M3.08666 4.35241C2.85894 4.35241 2.63143 4.54017 2.63143 4.77153V5.60959C2.63143 5.84076 2.83536 6.02889 3.08666 6.02889C3.08666 6.02889 3.7694 7.70482 4.22443 8.3336C4.50635 8.72322 4.90717 9.65849 6.50018 9.65849C8.09318 9.65849 8.4938 8.72322 8.77592 8.3336C9.23115 7.70482 9.9137 6.02889 9.9137 6.02889C10.1648 6.02889 10.3689 5.84076 10.3689 5.60959V4.77153C10.3689 4.54017 10.1648 4.35241 9.9137 4.35241V3.72382C9.9137 2.25718 9.01251 1 6.50018 1C3.99671 1 3.08666 2.25699 3.08666 3.72382V4.35241Z" stroke="white" stroke-miterlimit="10" stroke-linecap="round" stroke-linejoin="round"/>
</symbol><symbol id="puzzle" viewBox="0 0 16 16">
<path d="M10.6382 3.88374L10.6371 3.88544C10.5535 4.02755 10.5777 4.19493 10.6471 4.31761C10.7166 4.44053 10.8479 4.54783 11.015 4.54783H14.2522V7.26258C14.0032 7.16271 13.735 7.09784 13.4457 7.09784C12.1751 7.09784 11.1435 8.12939 11.1435 9.4C11.1435 10.6706 12.1751 11.7022 13.4457 11.7022C13.7357 11.7022 14.0041 11.6334 14.2522 11.5325V14.2522H4.54783V11.015C4.54783 10.849 4.44314 10.7177 4.32164 10.6471C4.20057 10.5768 4.03538 10.5509 3.89335 10.6303L3.89333 10.6302L3.8904 10.632C3.67729 10.7588 3.44019 10.8293 3.17717 10.8293C2.38607 10.8293 1.74783 10.196 1.74783 9.4C1.74783 8.60397 2.38607 7.97067 3.17717 7.97067C3.44189 7.97067 3.67876 8.03656 3.8904 8.16253L3.89037 8.16257L3.89335 8.16424C4.03531 8.24357 4.20029 8.21765 4.32105 8.14839C4.44184 8.07912 4.54783 7.94939 4.54783 7.78504V4.54783H7.78504C7.95206 4.54783 8.08344 4.44053 8.15292 4.31761C8.22226 4.19492 8.24645 4.02755 8.16286 3.88544L8.16287 3.88543L8.16184 3.88374C8.03667 3.67846 7.97067 3.44214 7.97067 3.17717C7.97067 2.38607 8.60397 1.74783 9.4 1.74783C10.196 1.74783 10.8293 2.38607 10.8293 3.17717C10.8293 3.44214 10.7633 3.67846 10.6382 3.88374ZM9.4 0.875C8.12918 0.875 7.09784 1.91227 7.09784 3.17717C7.09784 3.35229 7.12067 3.51686 7.15842 3.675H4.10866C3.99013 3.675 3.88247 3.72954 3.806 3.806C3.72954 3.88247 3.675 3.99013 3.675 4.10866V7.15842C3.51686 7.12067 3.35229 7.09784 3.17717 7.09784C1.91227 7.09784 0.875 8.12918 0.875 9.4C0.875 10.6708 1.91227 11.7022 3.17717 11.7022C3.35229 11.7022 3.51686 11.6793 3.675 11.6416V14.6913C3.675 14.8099 3.72954 14.9175 3.806 14.994C3.88247 15.0705 3.99013 15.125 4.10866 15.125H14.6913C14.8099 15.125 14.9175 15.0705 14.994 14.994C15.0705 14.9175 15.125 14.8099 15.125 14.6913V10.789C15.125 10.6209 15.0266 10.4591 14.8694 10.3884C14.7143 10.3186 14.523 10.3484 14.3975 10.4653C14.1442 10.6929 13.8103 10.8293 13.4457 10.8293C12.6494 10.8293 12.0163 10.1963 12.0163 9.4C12.0163 8.60368 12.6494 7.97067 13.4457 7.97067C13.8115 7.97067 14.1451 8.10245 14.3974 8.32918C14.5224 8.44556 14.7081 8.47623 14.8639 8.40612C15.0164 8.33748 15.125 8.17872 15.125 8.01102V4.10866C15.125 3.99013 15.0705 3.88247 14.994 3.806C14.9175 3.72954 14.8099 3.675 14.6913 3.675H11.6416C11.6793 3.51686 11.7022 3.35229 11.7022 3.17717C11.7022 1.91227 10.6708 0.875 9.4 0.875Z" fill="white" stroke="white" stroke-width="0.25"/>
</symbol><symbol id="scifi"><path d="M14 0c-.935 0-1.815.38-2.577.982a2.642 2.642 0 00-1.137-.268c-1.428 0-2.6 1.128-2.6 2.5 0 .766.368 1.46.94 1.92-.076.187-.15.374-.221.57a16.633 16.633 0 00-2.832-.291C3.302 5.398 1.389 6 .489 7.5c-.555.923-.611 2.031-.302 3.147.308 1.117.96 2.275 1.88 3.449.236.301.495.602.766.904-.271.303-.53.603-.766.904-.92 1.174-1.572 2.321-1.88 3.438-.294 1.062-.25 2.128.232 3.024a2.344 2.344 0 00-.163.848c0 1.373 1.173 2.5 2.6 2.5.911 0 1.718-.46 2.183-1.15 1.027.043 2.158-.05 3.366-.267.137.378.287.734.441 1.082.598 1.353 1.32 2.467 2.17 3.282C11.869 29.475 12.893 30 14 30s2.132-.525 2.983-1.34c.852-.814 1.573-1.928 2.17-3.28.155-.349.305-.705.442-1.083.397.072.782.134 1.16.178.258 1.119 1.295 1.965 2.531 1.965 1.427 0 2.6-1.128 2.6-2.5v-.011c.68-.333 1.253-.808 1.626-1.429.553-.923.61-2.042.301-3.158-.308-1.117-.96-2.264-1.88-3.438a18.038 18.038 0 00-.766-.904c.271-.302.53-.603.766-.904.92-1.174 1.572-2.332 1.88-3.449.309-1.116.253-2.224-.301-3.147-.9-1.499-2.814-2.102-5.085-2.087-.88.006-1.83.109-2.832.29a17.284 17.284 0 00-.441-1.094c-.598-1.352-1.32-2.466-2.17-3.28C16.131.512 15.107 0 14 0zm0 1.429c.636 0 1.279.284 1.938.915.66.63 1.301 1.602 1.846 2.835.117.265.229.548.337.837-1.32.33-2.703.801-4.121 1.395a29.027 29.027 0 00-4.12-1.395c.04-.108.085-.208.127-.313.09.01.185.011.279.011 1.427 0 2.6-1.128 2.6-2.5 0-.456-.123-.88-.349-1.25.496-.358.981-.535 1.463-.535zm-3.714.714c.624 0 1.114.471 1.114 1.071s-.49 1.072-1.114 1.072c-.625 0-1.115-.472-1.115-1.072 0-.6.49-1.071 1.115-1.071zM5.573 6.84c.728.005 1.538.084 2.403.235a26.364 26.364 0 00-.813 4.13 28.157 28.157 0 00-3.308 2.734 16.361 16.361 0 01-.592-.703c-.839-1.07-1.398-2.093-1.637-2.958-.239-.865-.178-1.536.14-2.065.516-.86 1.813-1.386 3.807-1.373zm16.854 0c1.994-.012 3.29.513 3.808 1.373.317.53.378 1.2.139 2.065-.24.865-.798 1.888-1.637 2.958-.18.23-.385.468-.592.703a28.2 28.2 0 00-3.32-2.735 26.485 26.485 0 00-.8-4.13c.865-.15 1.674-.229 2.402-.234zM9.438 7.4c.873.217 1.788.492 2.728.837-.565.276-1.128.567-1.695.881-.57.317-1.113.658-1.648.994.16-.964.373-1.87.615-2.712zm9.135 0c.241.837.445 1.743.604 2.7a36.248 36.248 0 00-1.648-.982 36.496 36.496 0 00-1.695-.881c.944-.347 1.864-.62 2.74-.837zM14 8.984c.92.405 1.855.856 2.786 1.373.932.517 1.81 1.066 2.635 1.63.095.972.15 1.975.15 3.013 0 1.034-.056 2.045-.15 3.013a33.775 33.775 0 01-5.433 3.003 34.367 34.367 0 01-2.774-1.384 33.783 33.783 0 01-2.635-1.619A31.18 31.18 0 018.43 15c0-1.033.056-2.034.15-3.002a33.43 33.43 0 012.635-1.64A33.755 33.755 0 0114 8.983zm0 3.516c-1.427 0-2.6 1.128-2.6 2.5s1.173 2.5 2.6 2.5 2.6-1.128 2.6-2.5-1.173-2.5-2.6-2.5zm-7 .647A34.06 34.06 0 006.942 15c0 .627.025 1.246.059 1.853A25.61 25.61 0 014.865 15 25.6 25.6 0 017 13.147zm14 0A25.6 25.6 0 0123.135 15 25.612 25.612 0 0121 16.853c.034-.607.059-1.226.059-1.853 0-.631-.025-1.242-.058-1.853zM3.855 16.071c.959.931 2.077 1.842 3.32 2.724.173 1.47.43 2.859.789 4.118-.912.16-1.75.236-2.507.234-.04-1.34-1.198-2.433-2.6-2.433-.488 0-.944.14-1.335.369-.065-.395-.04-.852.104-1.373.24-.865.798-1.877 1.637-2.947.18-.23.386-.457.592-.692zm20.29 0c.206.235.411.462.592.692.839 1.07 1.398 2.082 1.637 2.947.239.864.178 1.546-.14 2.076-.18.3-.44.554-.8.759a2.65 2.65 0 00-2.148-1.105c-1.102 0-2.05.68-2.426 1.618-.273-.034-.549-.084-.836-.134a26.36 26.36 0 00.801-4.13c1.243-.88 2.361-1.792 3.32-2.723zM8.823 19.9c.533.333 1.08.655 1.648.97.566.315 1.13.617 1.695.893-.944.346-1.864.62-2.74.837a23.953 23.953 0 01-.603-2.7zm10.354 0a24.03 24.03 0 01-.604 2.712 26.666 26.666 0 01-2.739-.849 37.177 37.177 0 001.695-.893 36.576 36.576 0 001.648-.97zm-16.32 2.243c.624 0 1.114.471 1.114 1.071s-.49 1.072-1.114 1.072c-.625 0-1.115-.472-1.115-1.072 0-.6.49-1.071 1.115-1.071zm11.155.446a29.128 29.128 0 004.12 1.384c-.109.294-.229.579-.348.848-.545 1.233-1.186 2.204-1.845 2.835-.66.631-1.303.915-1.939.915-.636 0-1.279-.284-1.938-.915-.66-.63-1.301-1.602-1.846-2.835a15.587 15.587 0 01-.337-.837 28.882 28.882 0 004.133-1.395zm9.274.28c.624 0 1.115.47 1.115 1.07 0 .6-.49 1.072-1.115 1.072-.624 0-1.114-.471-1.114-1.071s.49-1.072 1.114-1.072z" fill="#fff"/></symbol><symbol id="star"><path fill-rule="evenodd" clip-rule="evenodd" d="M8 2L6.333 6.8H2l3.667 3.086L4.333 14 8 11.257 11.667 14l-1.334-4.114L14 6.8H9.667L8 2z" fill="#F2890F"/></symbol></svg>