<svg width="11" height="14" fill="none" xmlns="http://www.w3.org/2000/svg"><g clip-path="url(#clip0)"><path fill-rule="evenodd" clip-rule="evenodd" d="M.009 5.09C.206 2.238 2.619 0 5.5 0c2.882 0 5.294 2.238 5.491 5.093a5.398 5.398 0 01-1.163 3.654l-3.88 5.036A.552.552 0 015.5 14a.572.572 0 01-.447-.217L1.172 8.744A5.397 5.397 0 01.009 5.09zM5.5 12.55L8.935 8.1c.665-.838 1-1.879.943-2.934-.139-2.009-1.812-4.082-4.376-4.082-2.565 0-4.241 2.081-4.38 4.086a4.343 4.343 0 00.943 2.93L5.5 12.55zM4.17 3.175a2.446 2.446 0 011.33-.384 2.43 2.43 0 011.683.681c.445.434.695 1.02.695 1.632 0 .458-.14.906-.403 1.287-.263.38-.637.677-1.074.852-.438.175-.919.22-1.382.13a2.415 2.415 0 01-1.224-.636 2.291 2.291 0 01-.651-1.188 2.247 2.247 0 01.14-1.337c.183-.423.49-.784.885-1.037zm.619 2.96c.211.135.458.205.711.203v.002c.336-.003.658-.134.895-.366a1.206 1.206 0 00.153-1.556 1.267 1.267 0 00-.574-.455 1.313 1.313 0 00-.738-.068 1.288 1.288 0 00-.652.34 1.222 1.222 0 00-.346.635c-.048.24-.022.489.077.714.098.225.263.417.474.552z" fill="#F2890F"/></g><defs><clipPath id="clip0"><path fill="#fff" d="M0 0h11v14H0z"/></clipPath></defs></svg>